<svg width="28" height="19" viewBox="0 0 28 19" fill="none" xmlns="http://www.w3.org/2000/svg">
<ellipse cx="6.5" cy="8" rx="6.5" ry="8" fill="white"/>
<path d="M7.94318 15.1705C7.04545 15.1705 6.27273 14.9886 5.625 14.625C4.98106 14.2576 4.48485 13.7386 4.13636 13.0682C3.78788 12.3939 3.61364 11.5966 3.61364 10.6761C3.61364 9.77841 3.78788 8.99053 4.13636 8.3125C4.48485 7.63447 4.97538 7.10606 5.60795 6.72727C6.24432 6.34848 6.99053 6.15909 7.84659 6.15909C8.42235 6.15909 8.95833 6.25189 9.45455 6.4375C9.95455 6.61932 10.3902 6.89394 10.7614 7.26136C11.1364 7.62879 11.428 8.09091 11.6364 8.64773C11.8447 9.20076 11.9489 9.84848 11.9489 10.5909V11.2557H4.57955V9.75568H9.67045C9.67045 9.4072 9.5947 9.09848 9.44318 8.82955C9.29167 8.56061 9.08144 8.35038 8.8125 8.19886C8.54735 8.04356 8.23864 7.96591 7.88636 7.96591C7.51894 7.96591 7.19318 8.05114 6.90909 8.22159C6.62879 8.38826 6.40909 8.61364 6.25 8.89773C6.09091 9.17803 6.00947 9.49053 6.00568 9.83523V11.2614C6.00568 11.6932 6.08523 12.0663 6.24432 12.3807C6.4072 12.6951 6.63636 12.9375 6.93182 13.108C7.22727 13.2784 7.57765 13.3636 7.98295 13.3636C8.25189 13.3636 8.49811 13.3258 8.72159 13.25C8.94508 13.1742 9.13636 13.0606 9.29545 12.9091C9.45455 12.7576 9.57576 12.572 9.65909 12.3523L11.8977 12.5C11.7841 13.0379 11.5511 13.5076 11.1989 13.9091C10.8504 14.3068 10.3996 14.6174 9.84659 14.8409C9.29735 15.0606 8.66288 15.1705 7.94318 15.1705Z" fill="#4C2998"/>
<ellipse cx="21.5" cy="8" rx="6.5" ry="8" fill="white"/>
<path d="M22.9432 15.1705C22.0455 15.1705 21.2727 14.9886 20.625 14.625C19.9811 14.2576 19.4848 13.7386 19.1364 13.0682C18.7879 12.3939 18.6136 11.5966 18.6136 10.6761C18.6136 9.77841 18.7879 8.99053 19.1364 8.3125C19.4848 7.63447 19.9754 7.10606 20.608 6.72727C21.2443 6.34848 21.9905 6.15909 22.8466 6.15909C23.4223 6.15909 23.9583 6.25189 24.4545 6.4375C24.9545 6.61932 25.3902 6.89394 25.7614 7.26136C26.1364 7.62879 26.428 8.09091 26.6364 8.64773C26.8447 9.20076 26.9489 9.84848 26.9489 10.5909V11.2557H19.5795V9.75568H24.6705C24.6705 9.4072 24.5947 9.09848 24.4432 8.82955C24.2917 8.56061 24.0814 8.35038 23.8125 8.19886C23.5473 8.04356 23.2386 7.96591 22.8864 7.96591C22.5189 7.96591 22.1932 8.05114 21.9091 8.22159C21.6288 8.38826 21.4091 8.61364 21.25 8.89773C21.0909 9.17803 21.0095 9.49053 21.0057 9.83523V11.2614C21.0057 11.6932 21.0852 12.0663 21.2443 12.3807C21.4072 12.6951 21.6364 12.9375 21.9318 13.108C22.2273 13.2784 22.5777 13.3636 22.983 13.3636C23.2519 13.3636 23.4981 13.3258 23.7216 13.25C23.9451 13.1742 24.1364 13.0606 24.2955 12.9091C24.4545 12.7576 24.5758 12.572 24.6591 12.3523L26.8977 12.5C26.7841 13.0379 26.5511 13.5076 26.1989 13.9091C25.8504 14.3068 25.3996 14.6174 24.8466 14.8409C24.2973 15.0606 23.6629 15.1705 22.9432 15.1705Z" fill="#4C2998"/>
</svg>
